<svg xmlns="http://www.w3.org/2000/svg"  viewBox="0 0 100 100" width="100px" height="100px" baseProfile="basic"><path fill="#ee5490" d="M45.913,83.391c11.15,5.374,22.689,5.087,30.558-2.925c7.378-7.512,9.085-17.383,8.408-26.795 L45.913,83.391z"/><path fill="#f59173" d="M62.826,18.051c-13.054-7-28.661-6.769-37.576,1.557c-7.107,6.636-9.987,15.692-9.055,24.643 L62.826,18.051z"/><path fill="#40a6dd" d="M82.884,28.722C73.676,14.867,50,14.81,34.014,25.002C15.459,36.833,50.293,89.017,70.22,73.123 C85.416,61.002,91.894,42.277,82.884,28.722z"/><path fill="#f9b621" d="M34.014,25.002C15.459,36.833,7.177,57.009,17.479,71.235c10.012,13.825,32.814,17.782,52.74,1.888 C85.416,61.002,50,14.81,34.014,25.002z"/><path fill="#8cc78c" d="M74.567,31.628c7.893,10.083,8.082,32.245-5.003,41.938c-14.666,10.865-37.275,4.428-45.038-8.999 c-7.722-13.358-2.227-32.682,10.932-40.311C49.899,15.884,66.708,21.588,74.567,31.628z"/><path fill="#fefdef" d="M58.998,44.011h-3v-3c0-3.313-2.686-5.999-5.999-5.999h0c-3.313,0-5.999,2.686-5.999,5.999v3h-3 c-3.313,0-5.999,2.686-5.999,5.999v0c0,3.313,2.686,5.999,5.999,5.999h3v3c0,3.313,2.686,5.999,5.999,5.999h0 c3.313,0,5.999-2.686,5.999-5.999v-3h3c3.313,0,5.999-2.686,5.999-5.999v0C64.997,46.697,62.312,44.011,58.998,44.011z"/><path fill="none" stroke="#1f212b" stroke-miterlimit="10" stroke-width="2" d="M45.913,83.391 c11.15,5.374,22.689,5.087,30.558-2.925c7.378-7.512,9.085-17.383,8.408-26.795"/><path fill="none" stroke="#1f212b" stroke-miterlimit="10" stroke-width="2" d="M62.826,18.051 c-13.054-7-28.661-6.769-37.576,1.557c-7.107,6.636-9.987,15.692-9.055,24.643"/><path fill="none" stroke="#1f212b" stroke-miterlimit="10" stroke-width="2" d="M82.884,28.722 C73.676,14.867,50,14.81,34.014,25.002C15.459,36.833,7.177,57.009,17.479,71.235c10.012,13.825,32.814,17.782,52.74,1.888 C85.416,61.002,91.894,42.277,82.884,28.722z"/><path fill="none" stroke="#1f212b" stroke-miterlimit="10" stroke-width="2" d="M74.567,31.628 c7.893,10.083,8.082,32.245-5.003,41.938c-14.666,10.865-37.275,4.428-45.038-8.999c-7.722-13.358-2.227-32.682,10.932-40.311 C49.899,15.884,66.708,21.588,74.567,31.628z"/><path fill="none" stroke="#1f212b" stroke-linecap="round" stroke-linejoin="round" stroke-miterlimit="10" d="M56.018,73.79 c-1.245,0.177-2.523,0.267-3.828,0.267"/><path fill="none" stroke="#1f212b" stroke-linecap="round" stroke-linejoin="round" stroke-miterlimit="10" d="M74.75,54.232 c-0.898,6.643-3.798,12.081-8.163,15.315c-1.961,1.453-4.165,2.569-6.546,3.327"/><path fill="none" stroke="#1f212b" stroke-linecap="round" stroke-linejoin="round" stroke-miterlimit="10" d="M43.512,26.193 c1.113-0.325,2.246-0.57,3.397-0.733"/><path fill="none" stroke="#1f212b" stroke-linecap="round" stroke-linejoin="round" stroke-miterlimit="10" d="M34.555,31.051 c1.052-0.932,2.192-1.762,3.412-2.47"/><path fill="none" stroke="#1f212b" stroke-linecap="round" stroke-linejoin="round" stroke-miterlimit="10" d="M28.855,62.064 c-4.928-8.525-3.257-20.389,2.995-28.168"/><path fill="none" stroke="#1f212b" stroke-linejoin="round" stroke-miterlimit="10" stroke-width="2" d="M58.998,44.011h-3v-3 c0-3.313-2.686-5.999-5.999-5.999h0c-3.313,0-5.999,2.686-5.999,5.999v3h-3c-3.313,0-5.999,2.686-5.999,5.999v0 c0,3.313,2.686,5.999,5.999,5.999h3v3c0,3.313,2.686,5.999,5.999,5.999h0c3.313,0,5.999-2.686,5.999-5.999v-3h3 c3.313,0,5.999-2.686,5.999-5.999v0C64.997,46.697,62.312,44.011,58.998,44.011z"/></svg>